<?xml version="1.0" encoding="UTF-8"?>
<svg id="Layer_1_xA0_Image" xmlns="http://www.w3.org/2000/svg" version="1.1" viewBox="0 0 407 350">
  <!-- Generator: Adobe Illustrator 30.3.0, SVG Export Plug-In . SVG Version: 2.1.3 Build 182)  -->
  <defs>
    <style>
      .st0 {
        fill: #331624;
      }
    </style>
  </defs>
  <path class="st0" d="M107.86,108.09c0,.54-.25.92-.49.94-.22.02-.57-.39-.57-.77l-.03-7.1-9.8-.74,10.83-.32.06,7.99Z"/>
  <rect class="st0" x="109.93" y="70.48" width=".79" height="21.66"/>
  <rect class="st0" x="273.43" y="156.75" width=".79" height="21.66"/>
  <rect class="st0" x="273.82" y="70.48" width=".79" height="21.66"/>
  <rect class="st0" x="109.54" y="156.75" width=".79" height="21.66"/>
  <rect class="st0" x="273.82" y="102.39" width=".79" height="20.48"/>
  <rect class="st0" x="109.93" y="102.39" width=".79" height="20.48"/>
  <path class="st0" d="M108.02,172.88c-1.2-3.56-.29-7.06-.57-10.64-.07-.92.79-1.68,1.65-1.48-.28.59-.56,1.16-.43,1.88-.35,3.35.7,6.63-.65,10.24Z"/>
  <path class="st0" d="M108.17,173.22c1.31,3.37.25,6.56.42,9.73-.09.27-.61.58-1.13.16.37-3.21-.78-6.54.71-9.89Z"/>
  <path class="st0" d="M108.35,157.74c0,.56-.12.82-.23.95s-.63.15-.73.02-.2-.42-.2-.78v-7.46c0-.35.37-.77.57-.76s.57.42.57.76l.02,7.26Z"/>
  <rect class="st0" x="107.17" y="136.71" width="1.18" height="8.83"/>
  <rect class="st0" x="106.78" y="113.06" width="1.05" height="9.09"/>
  <rect class="st0" x="98.51" y="206.38" width="10.24" height=".79"/>
  <path class="st0" d="M317.56,218.85l-5.92.12c-.38,0-.6-.08-.72-.22-.22-.26-.09-.87.32-.86l6.32.05c.25.33.16.7,0,.92Z"/>
  <rect class="st0" x="299.83" y="218.19" width="9.46" height=".79"/>
  <rect class="st0" x="84.32" y="206.38" width="9.46" height=".79"/>
  <rect class="st0" x="107.17" y="126.02" width=".79" height="9.45"/>
  <rect class="st0" x="107.96" y="187.47" width=".79" height="9.06"/>
  <path class="st0" d="M92.06,100.81h-9.3c.07-.41.39-.7.74-.8h7.94c.26.05.62.24.61.8Z"/>
  <rect class="st0" x="68.17" y="100.02" width="8.27" height=".79"/>
  <rect class="st0" x="69.75" y="206.38" width="8.27" height=".79"/>
  <rect class="st0" x="109.93" y="130.75" width=".39" height="15.36"/>
  <rect class="st0" x="273.82" y="130.75" width=".39" height="15.36"/>
  <g>
    <path class="st0" d="M85.03,267.57l-11.7-.27c-.43,0-.6-.2-.62-.47-.02-.31.18-.55.59-.56l12.66-.38c6.3-1.34,12.4-1.79,18.97-1.48,1.31-1.93,1.69-5.23.81-7.26-4.72-2.45-10.96-.24-13.26-2.6-1.23-1.26-1.3-2.96-1.59-4.73-1.1-.2-3.41-.53-3.6-1.76-.21-1.29.27-2.85.34-4.19l1.3-3.7c.72-2.05-3.44-4.57-3.26-5.57.28-1.58,4.06-1.13,3.91-3.36-1.18.6-2.04.77-3.15.27-2.81-1.27-5.32-.94-6.03-2.16-.32-.55-.68-1.97-.19-2.75,3.01-4.78,7.35-8.58,12.55-11l5.23-1.44c.62-.17.86-1.02,1.53-1.05.56-.02,1.07.63,1.4,1.14,6.15.96,7.29,5.35,8.04,5.58,1.12.35.38-1.59.73-3.67l.51.04c.13.92-.16,1.92.28,2.84l.47-.09.09-7.07-1.28-.78.06-21.07c.19-.13.38-.23.37-.22.51.8.28,1.6.33,2.58.85-.39,1.16-.7,1.7-1.14.54-3.96,2.12-9.8,4.97-11.44.92-.53,1.45-.89,1.59-2.28,1.21.76,3.01.29,4.13.73,3.69,1.45,5.12,7.21,4.73,11.24-.13,1.33.63,3.02-.7,4.24.83.82.54,1.81.63,2.94l.34,4.43c.03.34-.33.5-.49.51-1.1.06.05-2.08-.92-3.7-.73.76-.89,1.62-1.17,2.57l2.49,3.31c1.35,1.81,3.63,2.49,4.74,1.06.46.68.92.77,1.83.77l56.5-.03c.13,0,.32-.2.32-.29l-3.47-.14c-.17,0-.32-.17-.34-.26l3.58-.26c1.05-.08,2.5-.24,3.31-.6.83-1.6,2.31-3.13,3.9-2.83-1.05-3.55-5.91-3.22-9.87-1.91l-12.53,4.13c.61,1.07,1.88.1,2.41.95l-11.33-.9,2.65-.49-5.13-3.41c-1.39-.92-6.19.53-9.11,1.95,1.24.91,2.27.31,3.21.57,0,.18-.14.34-.32.38l-4.66-.32c-1.86,1.06-3.95,1.02-5.26-.62l-9.78.07c-.18-.06-.2-.23-.17-.29l9.98-.24c1.37-3.49,3.29-2.2,7.05-2.68l-.98-.86c-.25-.21-.31-.89-.06-1.15.85-.88,2.23-.04,3.02-.19,1.09-.21,1.68-.44,2.64.66.94-1.7,2.82-1.8,4.46-.85.5.29,2.09-.29,2.15.8-.12.12-.53.33-.65.34-.23.03-.42.3-.27.53s.63.38.85.24c1.02-.67,2.08.23,2.82.29.47.04,1.68-1.05,1.9.06.09.61-1.22,1.51-.66,2.58,2.54.74,5.26.32,7.78-.58,4.59-1.65,9.07-3.39,13.88-4.14,6.79-1.06,7.31,4.43,8.8,3.89.23-.08.17-.36.24-.93,2.94,0,3.89-1.47,4.28-1.72,2.7-1.76,5.86.11,8.33.08l10.79-3.55c1.01-.33,2.72-.34,3.24.81.55,1.24,1.02,2.14,2.52,2.33,4.66.59,8.11-2.14,8.51-.36.54,2.36-6.05,3.11-10.73,2.31,1.16,1.98,3.32,1.64,5.06,2.02-2.02.57-4.55-.06-6.53,1.24-.7.48-1.04,2.27-2.49,1.32-.06.82-.23,1.23-.09,2.02l30.32-.02c1.55-2.68,3.61-4.48,6.1-6.44-.48-.38-1.03-.27-1.45-.33-.51-.07-.18-1.59-2.98-1.82l-2.12,5.68-1.64,1.28c-.49-.93-1.1-1.32-1.81-1.8.54-.16.75.07,1.28.26-.55-2.32-.06-4.17.3-6.34.8-4.77,2.84-9.17,6.65-12.26.9-.73,1.28-1.89,1.36-2.99.47-.23,1.16.33,1.18,1.24,2.11-2.09,1.12-4.08.97-6.96,1.09-.54,2.6.27,3.56.32.65.02,1.84-1.85,2.54-.54l-.75,4.48c.91,0,1.58-1.31,2.41-.99,1.41.54-.35,4.08,1.02,6.77.51,1,1.54,2.89.92,4.01-2.23,1.95-.2,3.61-.94,4.71-.26.39-2.6-.38-3.52,3.84l5.53.47-.02,17.72c1.1.34,1.48,1.09,1.16,2.32,4.33.91,6.02-2.35,9.78-2.99,3.06-.52,5.94.32,7.46,3.08l4.26.05c.31.86.28,2.04.94,2.76l2.97,1.12c1.04.39-2.04,2.96.7,5.31.63.54.98,1.16,2.02.51.65-.4,1.68-.17,2.19.46.33.4.19,1.26.29,1.96,1.15.51,3.04.47,3.74,1.8.83,1.59.76,3.89.09,5.69-1.94,5.2-4.06,10.29-7.28,14.8-.82,1.14-2.41,2.33-3.55,3.1-3.22,2.19-6.93,2.91-10.58,3.48l.23,3.46c1.8-.89,3.46-1.35,5.16-.81,1.11.36,1.47,1.6,1.58,2.76l6.1.08,51.41.14.02,4.77-23.92.16c-15,.1-34.01,6.12-46.45,14.45l-8.73,5.85c-2.13,1.43-4.57,1.67-5.36.05-.46-.94-.13-1.75.57-2.5l5.29-5.65c.84-2.31.03-5.15.28-7.77l-17.25,11.64c-3.66,2.47-10.49,7.25-12.49,5.01-.61-.68-.62-1.73-.25-2.69-1.23.15-1.9,1.1-2.85,1.77-2.75,1.96-6.34,4.97-8.07,3.04-1.28-1.43-.14-3.37,1.67-5.49-2.43.64-4.1,2.75-6.11,1.25-1.14-.86-1-2.02-.65-3.59-3.6,1.88-7.7,6.32-10.15,4.58-.78-.55-1.03-1.58-1-3.09l-6.63,3.9c-.95.56-2.13.13-2.68-.38-.95-.89-.77-2.18.06-3.07l3.76-4.05c-1.77.47-2.9,1.71-4.4,2.66l-7.51,4.73c-.82.51-1.88.34-2.64-.1s-1.11-1.42-.83-2.84c-3.71,1.84-9.23,7.34-11.13,4.12-1.26-2.13,4.42-6.17,7.87-8.71l11.31-8.35c2.01-1.49,4-2.75,5.35-4.94-3.28,1.22-5.86,3.19-8.81,5-7.18,4.4-14.04,8.87-20.92,13.7-3.13,2.2-7.47,4.63-8.99,2.46-.52-.74-.6-1.95.12-2.67l11.84-11.86c-6.46,3.52-11.95,7.99-17.87,12.17-2.94,2.07-6.78,5.21-8.35,2.84-1.81-2.74,2.15-4.14,3.08-6.45-4.83,2.14-9.79,7.21-12.22,3.83-.61-.84-.42-2.08.47-3.12,2.81-3.26,5.97-6.01,9.3-8.74.4-.33.78-.77,1.03-1.26l-5.71,3.65-13.06,9.38c-3.26,2.34-6.98,4.49-8.41,1.49-1.2-2.49,3.89-5.17,5.29-8.26l-11.94,9.42c-2,1.58-4.3,2.72-5.53,1.5-.59-.59-.82-1.81-.17-2.44l5.61-5.47,10.07-10c-1.96.55-3.37,1.79-4.96,2.95l-14.59,10.59c-1.66,1.21-3.54,2.36-5.66,2.13-.89-.1-1.13-1.11-1.1-1.72.11-1.99,2.28-2.35,2.23-3.74-.07-1.98.25-3.84-.24-5.81l-6.48,5.38c-.94.78-1.85,1.46-3.16,1.56-1.17.09-2.11-.71-2.18-1.79-.16-2.32,2.61-1.84,3.82-2.89l7.82-6.76c.51-.44.38-1.33.48-1.82.22-.24.88.07.92.59l3.08-2.57,4.43-3.3c-5.91-1.55-7.12,3.15-9.69,2.25-1.01-.36-1.44-1.19-1.29-2.71l-17.51.3c-1.76.03-2.78.01-4.49-.02ZM269.6,179.53l-2.61,2.01c-.75-1.66-.27-3.04-.12-4.97-.67-.12-2.72.26-2.98,1.2-.38,1.36-.02,2.74-.87,4.1,3.81.6,5.09,5.3,5.98,9.26,4.38-2.93-.68-5.18.59-11.61ZM119.74,197.08c.52.06.48-1.3.03-1.7-2.32-2.05,1.72-6.39,4.13-9.4.81-1.01.49-3.36-.23-4.21-1.11-1.31-2.76-1.79-4.02-.75l-.62,2.89c-1.13.38-2.3.83-2.96,1.79-.47.69,1.08,2.53.22,3.93-.19.31-1.25.39-1.4.75-.47,1.89-.19,4.09-.15,6.12l5,.59ZM261.23,197.9l.63.79c.11.13,1.08-.07,1.33-.22,1.62-.99.98-2.99.67-4.47-.43-2.05.25-4.19.31-6.42,2.42,1.54-1.01,5.67,1.67,7.8,1.18-3.72.66-8.01-2.21-10.69-1.14-1.07-3.96.49-3.9,1.89.05,1.25.91,2.49.16,3.63-.52.78-2.55-1.44-3.04-.53-.68,1.28,1.46.87,1.81,1.73.52,1.25-1.68,2.86-1.77,4.44-.05.9,1.6.38,2.14.4.35.24.36,1.46.69,1.63.27.14.74-.02,1.51.03ZM112.44,196.78c-.06-1.8-.85-2.74-1.77-3.86l-.17,3.96c.62-.27,1.22-.11,1.93-.1ZM117.69,201.77c.78-1.66,1.14-2.35,1.37-3.59-1.46-.33-2.59-.4-3.86-.38.07,1.27.23,2.28.61,3.32.86-.18,1.35.29,1.88.66ZM204.24,200.9c2.61-.66,4.77-.94,6.73-2.2-1.44-1-2.91-.81-4.16-.43,1.15,2.42-2.67.16-2.57,2.63ZM217.14,204.09c-.65-1.11.97-.98.34-.11-.02.46-.18.94-.39,1.06-.13.08-.55-.11-.79.46,3.88.21,7.86.73,7.58-1.77-.05-.46.27-1.01.53-1.11.17-.07.53-.02.85-.02l1.8-2.2c-1.76-1.33-4.11-2.49-6.34-1.91-1.09.28-2.44.25-3.56.6-4.49,1.43-8.63,3.68-13.5,4.12-1.75.16-4.02-1.31-5.64-.48-1.21.62-1.97,2.4-3.61,2.68,1.23,1.37,2.42,1.17,3.77,1.03l7.46-.79c3.94-.06,7.84-.05,11.49-1.57ZM270.22,202.95c.11-.58.32-1.18.62-1.18s.61.16,1.2.41l.07-2.97-5.35-.34c-.75,1.55-1.69,2.58-2.72,3.81,2.39.83,3.67-2.19,4.96-.14.23.36,1.16.72,1.21.42ZM260.63,202.53c1.24-.5,2.22-1.91,2.62-3.2-3.44,1.4-7.28,4-5.78,5.88.19.24.56.5.81-.03,1.06-2.31.24-1.78,2.35-2.64ZM264.91,205.56l5.31-.06c-.58-1.1-1.26-2-2.1-2.09-1.52-.18-1.82,1.69-3.18,1.27-.28-.08-.63.89-.03.88ZM115.44,205.52l-1.25-2c-.84.35-1.28,1.12-1.12,2.08l2.37-.08ZM113.12,217.57c0,.35.89.39.98.21l4.04-8.02c-1.23-.66-1.85-1.52-2.11-2.8l-2.86-.06-.04,3.38c.72-.01,1.2-.03,1.66.29-.71.32-1.4.17-1.76.47l.09,6.53ZM263.89,223.7c.05,1.14,2.2,2.38,1.4,3.62-3.09.27-.84,2.13-1.88,5.08-.79-1.37-.04-2.65-.26-3.91-.14-.78-.74-1.34-.49-2.31-3.35.21-2.82,3.79-4.61,2.86,1.92-1.63-.39-.41-1.54-1.12-.35-.22-.67-.8-.74-1.49l-.44-4.3c-.29-2.77-3.08-4.43-5.83-3.81-.52,1.04-1.29,1.75-1.51,3.01-1.29-.1-2.17.82-3.38,1.24-.95.33-1.91-.8-2.48-1.61-3.89,1.04-7.6,1.72-11.59.66-1.05-.28-1.98-.79-3.19-.2-1.74.85-4.03,1.33-5.74.11,2.12-1.12,5.15-.05,5.15-1.47,0-1.48-2.95-1.16-3.91-.47-1.17.85-2.11,1.26-3.47,1.55l2.24.42-4.24.53c.98,1.73,1.61,3.04,2.16,4.71,8.32-.74,16.39-1.73,24.66-1.36,3.77.17,7.22,1.02,10.22,3.07.62.43.72,1.37.11,1.56-3.18-3.44-11.16-4.07-16.17-3.69l-18.11,1.38,1.56,5.7c1.18.05,2.43.36,3.39-.09l11.01-5.11c1.47-.68,3.87-1.11,5.26-.14,1.63,1.15,1.29,3.55,1.24,5.37l6.6-.04,1.13-.64c.22-.12.65.65.99.66l5.08.08c.12-1.43,0-2.72-.28-3.92.78-.44,1.16.14.89.53-.31.98-.18,1.94-.05,2.92.07.51.91.66,1.17.43.18-.15.13-.68.29-1.15.18-.52,1.24-.61,1.56-.12l-1.18.37c-.15.05-.07.87.1.87l4.49.03,2.19-2.86c-.62-.13-1.03-.02-1.52-.61,1.85.16,2.54-.34,3.38-1.69.23-.36,1.26-.52,1.01-1.61-.75.14-1.68.42-2.81-.03,2.39-.33,5.17-.19,5.16-2.66l-.02-13.36c-1.05.18-1.7.2-2.26-.22.93-.29,1.56-.12,2.29-.13l-.05-3.44-6.72.16c-1.58.04-3.37-.7-4.93.17-.52.29-.85,1.79-2.05,1.56-.39-.08-.7-1.06-.55-1.75-1.36-.19-2.36-.3-3.88.06,1.37.95,2.22,1.53,2.21,2.67s-.22,2.47-1.75,2.56c.25-1.14.83-1.93.52-2.89-.51-1.57-4.24-2.34-7.04-2.42-11.88-.35-23.6.44-35.15,2.74.04.85.08,1.32-.18,1.82-.53-.58-.48-1.01-.66-1.76l-12.77,1.49c-.34.12-.48.94-.64,1.55l-.64-1.51-7.97.08c-8.16-.51-16.01-1.58-24.1-2.55l-14.07-1.68c-5.02-.6-18.48-.42-20.72,3.06.58.74,1.29,1.03,1.36,2.03-1.17.22-1.97-.79-2.16-1.86-.37-2.03,2.49-2.23,2.02-3.48l-4.22.14c-.26,0-.68.78-.94.78s-.67-.46-.97-.67l-3.73,2.5c-.57.38-1.99,3.87-1.51,4-1.47-.41-1.46,3-3.69,4.59-.42.3-.92.45-.93.91-.01.37.19.67.34,1.07l.34.91c.09.23.98.17,1.29.18.56.03.49.63.31.85l-.67.82c-.17.29,1.11.74,1.26.43.49-1,2.03-1.69,2.08-2.58l.35-6.36.36,6.2c.46.26,1.23.58,1.31.98.31,1.5-1.1,2.26-.96,3.48,1.83,1.32,3.21,3.01,3.81,5.24,1.45.43,1.93,1.49,1.69,3.15.84-.47,1.52-.06,2.32-.06l21.52.04c.09-.79-.03-1.29.32-2.02.33.57.24,1.17.28,1.99h6.58c.03-.85-.06-1.46.28-2.06l.3,2.08,39.16-.02,3.34-4.09c-8.26.16-16.2.53-24.53-.24l-31.4-2.91c-5-.46-13.26-.18-15.04,4.03-1.91-2.04,3.14-4.58,7.17-4.88,6.05-.46,11.88.14,18.03.68l27.17,2.4c4.57.4,8.84.56,13.4-.03l5.03-.12c1.65-.04,2.92-1.01,3.34-2.74-2.69.24-4.99-.17-6.79-1.92l-12.25-.06c0-.13.07-.26.21-.33l11.6-.06c-5.01-8.86-14.23.59-27.23-2.4-.23-.05-.3.9-.06.87.31-.03.9-.16,1.38.28-1.86.29-3.71-.22-5.73-.48l-3.43-.43c1.54.02,2.26-.17,3.11-1.67-3.53-.55-7.28-.85-11.19.22l3.09.81-5.48-.04c-3.45-.03-9.87,4.06-11.63,2.12-.4-.45-.33-1.7-1.34-1.85,2.87.07,4.38-3.47,8.82-2.92.44.05,1.14.93,1.55.79,5.11-1.74,10.18-2.57,15.52-1.6l6.55,1.81c.7-.72,1.6-1.74,2.82-1.59l.88-.42c.16-.08.67.53.87.45,3.62-1.39,5.39,1.07,6.57-1.56,6.1,3.83,10.55-.78,11.45-.11.18.14.37.5.56,1.02l3.17-1.85c.59.47.76,1.2.56,2.39,1.29-.97,1.94-.54,3.01-.41,3.84.46,6.66-.95,8.68.57,1.14.86,2.91,1.44,4.29,1.35.33-.02.91.98,1.11.78.33-.33.45-.76.57-1.63,1.55,1.13,2.92.99,4.57.25,8.6-3.85,9.24,1.04,11.64,1.43,4.09.65,8.53.29,12.27-1.64,5.19-2.68,9.27-3.09,13.28,1.18.98,2.2,1,4.41,1.48,6.77,1.76-1.17,3.18-2.13,4.93-2.63l.04-8.11c.1,0,.22.07.28.22l.34,8.45ZM204.26,206.94l-.37,1.49c-.4-1.03-.82-1.44-1.63-1.57s-1.69.13-2.33.42c-.18.07-.59-.26-.79-.28s-.61.46-.78.37c-.39-.2-.72-.64-1.43-.47.28.91.43,1.95-.17,2.69-.13-1.97-1.97-.74-3.09-2.7l-31.89.21c2.98,1.13,6.06,1.05,9.23,1.67,8.53,1.12,16.92,1.94,25.48,1.48,1.05-.06,1.35-1.81,1.44-2.4.53.89.15,1.65.21,2.41,4.4-.38,8.42-.58,12.53-1.57-.12-.6-.55-1.68-1.22-1.68l-5.2-.06ZM218.8,207.25c-2.8-.77-5.04-.14-7.54-.36-.07.66.05,1.13.42,1.75l7.12-1.4ZM100.67,218.01c.23-.03.56-.67.73-1.15-2.01-.57-3.97.06-5.15,1.98.75.19,2.23.5,2.87-.46.16-.26.24-1.12.73-.99.21.05.61.64.83.61ZM198.06,221.11c.93,1.74,2.21,2.15,3.92,2l5.07-.44c1.56-.57,2.54-1.88,4.11-2.91-3.11-1.1-3.59-2.95-7.01-1.7-.57.21-1.86-.59-2.37-.1-1.22,1.18-.9,3.32-2.23,3.34-1.6.03-1.08-2.74-2.77-2.27-.48.83.98,1.54,1.26,2.07ZM285.6,217.7c-.59-.6-2.62-.2-2.88.67s-.08,1.56.36,1.82c.63.36,1.58.38,1.69-.41.06-.4-.22-1-.03-1.16.15-.12.92-.05.85-.92ZM179.69,218.65c-1.34-1.59-2.33-.57-3.55-.29-.65.15-1.61-.35-2.03.74,1.94.05,3.48.07,5.58-.45ZM92.46,218.39c-4.5,2.27-7.83,5.44-10.26,9.52,2.41.47,4.25,1.16,6.56,1.82-1.51-6.51,2.36-7.56,3.7-11.34ZM91.09,228.37l1.77,6.62c3.98-4.4,6.99-8.84,10.35-13.27.66-.87,1.88-1.06,2.59-1.57.3-.45-.19-1.01-.39-1.2-.22-.22-.69-.59-1.14-.09-.28.32-.61.95-.93.9l-1.32-.2c-.29-.04-.54.91-.87.92-.31,0-.91-1.04-1.21-.97l-3.19.91c-.76.22-1.07,1.19-2.2,1.03-.64-.09-1.41.26-1.65.78-.19.41-.22,1.02-.06,1.59.82,2.92-2.1,3.27-1.76,4.54ZM274.43,227.06c.86.69,1.01,1.14,1.35,2l7.12-7.39c-.79-1.17-1.82-2.26-3.29-2.14l-.23,2.56-3.93,1.34c.32.42.61.87.6,1.22-.02,1.05-2.46,1.73-1.62,2.4ZM298.55,222.86c-.96-.21-2.07-.14-2.98-.76.02-.46-.18-1.16-.44-1.33-.22-.15-.76.09-1.45.32,1.27,2.51,1.81,3.96,3.92,3.41.47-.12,1.02-.52.95-1.65ZM115.46,222.53h-2.42s0,1.98,0,1.98h2.42s0-1.98,0-1.98ZM205.62,227.97l11.53-.91c-.6-1.9-1.41-3.1-2.3-4.48l-6.6,2.57c-1.08.42-1.92,1.46-2.63,2.81ZM274.76,237.2l12.24-12.49c.28-.29.54-.84.56-1.17.02-.22-.4-.38-.71-.44-.21-.04-.41-.04-.73.29l-11.49,12.1c-.47.5-.7,1.44.13,1.7ZM279.14,239.26l14.5-12.69c.65-.57-.8-2.54-1.39-1.95l-10.94,10.93c-1.88,1.88-4.06,3.35-5.26,5.78,1.34-.24,2.15-1.25,3.08-2.06ZM95.25,243.22c2.78-4.3,5.72-8.28,8.85-12.34.24-1.71.8-3.27.36-5.05-3.66,5.06-7.28,9.44-11.08,14.02-.62.75-.31,2.2-.23,3.04.7.33,1.33.38,2.09.34ZM116.5,227.74c.41-.22.21-.94-.21-.92l-3.21.16c-.07.75-.16,1.35.11,2.33.88-1.09,1.9-1.38,3.3-1.58ZM120.97,232.71c-2.36-1.95-.21-4.74-1.01-4.95-.32-.08-.82.18-1.04.57l-2.77,5.01c1.6.35,3.12.55,4.82-.63ZM214.15,233.49l5.13-.1c-.44-2.13-.97-3.68-1.82-5.37l-13.22,1.19c-1.22,1.35-2.57,2.33-3.57,4.06,1.23.53,2.3.1,3.47.12l8.47.08c.18,0,.57-.65.7-.55s.43.57.85.57ZM275.43,248.34c4.41-2.03,7.81-4.73,11.29-7.38l11.4-10.2c.35-.31-.85-1.28-1.17-1.02-.26.21-1.14.49-1.21.85-.47,2.2-3.01,1.54-3.9,2.31l-10.22,8.84c-2.25,1.94-4.92,3.57-6.18,6.6ZM106.22,237.32l3.08-3.59c.74-.86.21-2.58.11-3.71-4.52,5.25-8.6,10.78-12.39,16.95,2.02-.22,2.66-2.04,3.68-3.3,1.82-2.25,3.65-4.18,5.52-6.35ZM234.46,231.76c-1.02-.01-2.31.47-3.42,1.45,1.28.72,2.66.46,3.42-1.45ZM303.72,243.21c1.53-1.98,1.72-3.71,2.63-5.6.17-1.12.98-3,.07-3.92-1.14-1.16-4.69-1.54-4.57-.32.08.76,2.09.5,2.34,1.55.1.42-1.04,1.06-1.08,1.53-.16,2.07.17,4.52.61,6.76ZM90.13,238.89c.91-2.2.03-3.46-.15-5.37l-3.15,1.12,3.3,4.25ZM118.61,234.17c-1.28-.39-1.86-.26-2.8-.26-.85,1.39-2.39,2.39-2.59,4.03l5.39-3.77ZM130.52,265.6l6.88-.11c1.67-.9,3.12-3.28,5.33-3.43l4.17-.29c1.09-.08,3.45-.83,3.46-2.24l.1-17.54c-1.79-.82-3.38-1.61-4.53-3.05-1-1.25,1.31-2.49,4.48-2.65.13-.85.14-1.47-.02-2.36l-23.39.16c.07,2.53,3.09,6.78,5.69,7.88,7.97,3.38-6.8,18.43-19.34,17.05-.6,1.31-.14,2.78,1.08,3.51-.17,2.6,1.24-.91,6.53-2.23,2.24-.56,4.06-.21,5.73,1.46l3.83,3.84ZM157.6,233.88l-6.71.06.02,2.45,6.71-.06-.02-2.45ZM191.82,238.7c.76-1.33,1.75-1.32,2.74-.9l2.46-3.85h-38.91c-.19.84-.17,1.51-.02,2.33l10.98.86c7.64.6,15.04,1.4,22.76,1.55ZM212.8,237.54l.2-3.62-13.03.05-3.1,4.6c2.5.45,4.63-.19,6.83-.35l9.1-.67ZM219.6,236.19c.47-.27.22-2-.27-2.13l-5.83-.1-.14,3.41c2-.25,4.18,0,6.23-1.18ZM232.47,234c-2.47-.44-4.68.2-6.56,1.83,3.3.09,6.47.02,6.56-1.83ZM263.52,241.8c-.07-.17.06-.36.25-.36l4.07-.07c.07-1.97.85-3.53,1.97-5.02-.39-.82-.57-1.48-.79-2.6-2.71,1.48-5.16,5.14-6.39,3.11-.54-.89.02-2.02.58-2.84l-4.29-.05-.07,8.56c.71.02,1.19-.02,1.59.37-.53.04-1.42.08-1.57.42-.04,1.46-.18,2.93.14,4.21.84.37.37.84-.45.93l-.12-14.46c-.57-.13-.96-.13-1.5-.03.09.75.27,1.23-.22,2.12-.36-.62-.26-1.25-.19-2.15l-7.09.09-6.45-.04c-.58,0-.82,1.82-.12,2.07,1.01.36,2.1,1.01,1.8,2.1-.41,1.44-2.3,2-2.99,2.95-1.46,4.51-2.15,9.41.48,13.07,1.14,1.58,1.42,3.62,1.9,5.49l4.95-2.07c2.71-.65,5.79-.64,8.48.13l4.08,2.22.11-10.27c.12,0,.26.06.33.21l.06,10.72,2.77,1.61c2.92,1.7,5.81-1.78,5.96-2.54.31-1.66.16-3.3.08-5-2.61-1.36-4-3.59-5.71-5.83-1.07-1.41-2.14-3.08-1.04-5,.5-.88,2.31-.75,3.31-1.7-1.31-.76-2.75-.11-3.91-.36ZM290.38,253.45c2.32-.02,4.22-.16,6.21.63l3.37-3.21c-.61-.74-.86-1.45-.69-1.94.29-.8,1.53-.73,2.08-.83,1.13-.79,1.32-2.31,1.95-3.36-1.23-1.61-.98-3.41-1.13-5.3-.13-1.56-.57-2.93.39-4.38-.48-.39-1.55-.88-2.19-.59-3.98,3.95-8.32,7.14-12.89,10.36l-.02,6.51c0,1.05-.03,1.96.93,2.59-1.17.61-1.46,1.59-1.03,3.03,2.54-.3,5.14-.61,7.5-2.31l-5.14-.33c-.47-.03-.75-.31-.82-.54-.14-.47.29-.82.51-.73l.98.4ZM115.93,250.76c-.77.18-2.23,1.15-2.65,1.84-.66,1.08-.17,2.58-.26,3.96,3.1.63,6.02-.24,9-1.45,7.18-2.9,12.09-9.66,9.92-10.78-2.35-1.21-3.98-2.8-5.41-4.97-.52-.8-1.4-1.33-1.33-2.62.02-.35-.18-.69-.58-.68-1.32.03,1.25,1.17,0,4.14l1.74,2.45c.16,1.07.53,2.28,1.03,3.11-.15.37-.97.69-1.24.68-.3-.02-.68.8-.16,1.05.92.46,2.26,1.27,1.54,2.56-.31.56-1.27,1.43-1.82,1.82-.49-.35-.83-1.05-1.15-1.25-1.72-1.05-1.11,2.21-3.44,2-2.02-.18-.89-2.88-1.58-3.21-.64-.3-.94.71-3.63,1.35ZM238.66,242.88c-.61-.04-.99-.32-1.06-.45.16.3,2.36-2,2.08-5.66-.72-.9-2.15-.03-2.72.87-2.1,3.31-5.06,5.56-7.79,8.56,2.8.05,5.95-3.04,7.72-1.58.53.43.53,1.29.89,2l.88-3.74ZM225.17,243.5l5.11-6.72c-1.36-.12-2.87-.17-3.81.27-1.55,2.67-3.51,3.44-1.31,6.45ZM150.37,240.58c.21-1.48.15-2.22-.05-3.3-1.2.05-2.31.04-3.41.66.74,1.45,2.18,1.97,3.46,2.64ZM151.14,258.37c1.63-1.07,2.78-.97,3.92-.2.91.38,1.7.77,2.52,1.37l.04-22.21c-2.18-.31-4.29-.29-6.63-.13-.14,1.28-.19,2.43,0,3.74l3.04,1.44c-.2.48-.78.94-1.04.84-.73-.26-1.21-.69-2.1-.62.13,5.42-.22,10.57.25,15.75ZM121.69,251.56c.46-.9.75-1.61,1.47-1.87,1.81-.66,2.53.75,3.18.05.84-.91-2.61-1.47-1.31-3.47.67-1.03.94-2.75-.03-3.69-2.47-2.4-.17-4.63-1.54-4.95-.45-.1-.69.11-1.08.48l-9.47,9.1c-.16.2.24.91.36.86l.65-.28c1.12-.48,2.35-1.13,3.57-.5l.73.98c.21.29,1.84-.37,2.58.29.84.74-.44,2.88.89,3.01ZM193.59,264.59c1.17-.28,2.58-1.37,3.79-.73,1.32.71,2.74,1.3,4.36.8,1.89-.58,8.02.94,11.66-.63-4.17-1.43-8.04-1.95-11.82-3.51-4.06-1.67-10.99-4.26-10.67-7.46.24-2.37,8.37-7.28,11.84-9.05l10.36-5.31-17,.87c-1.61,2.76-3.81,6.06-5.3,5.13-.65-.41-.91-1.14-.76-1.94l.59-3.18c-7.18-.11-14.06-.75-21.21-1.3l-11.43-.87v22.82c3.35-.47,5.13-3.45,7.78-2.37.79.32,1.34,1.16,1.62,2.31,1.3-.88,2.26-2.14,3.72-2.42,1.58-.3,3.1,1.22,4.04,2.32,2.11,2.45,4.4.83,4.69,2.45.25,1.44-1.62,1.61-4.13,1.14-.24.75-.3,1.07-.17,1.72l7.12-.39c.42-.02,1.22-.57,1.24-.9.04-.63-1.57-1.03-2.14-2.09-.13-.25-.13-1.11.41-1.22,2.28-.46,4.5,1.65,4.29,4.1,2.46-.04,4.57.33,7.11-.28ZM217.52,242.25c1.15-1.12,2.03-2.15,2.76-3.53l-4.02,1.47c.26.93.57,1.46,1.26,2.07ZM213.69,255.23l9.51-8.54c.52-1.01-.41-2.8-1.44-3.46l-4.12,4.69-3.41,4.4c-.67.86-1.06,1.76-.54,2.9ZM207.67,255.6c-1.94.36-3.23.85-4.5.25-1.57-.73-2.05-2.48-1.17-3.93l1.31-2.15c1.82-1.94,4.16-3.43,5.25-6.11l-10.46,5.96c-1.74.99-3.48,1.95-4.7,3.57,2.29,3.24,8.4,4.79,12.77,6.44l1.5-4.03ZM215.4,244.46c0-.8-1.76-.83-1.86-.35-.19.9-.09,1.63.08,2.5.58-.51,1.78-1.19,1.78-2.15ZM269.62,248.31c1.27-.22,1.42-.72,1.32-1.52-.06-.48-.75-.63-1.56-.71.38-.22.8-.52.96-.86.09-.2-.14-.63-.41-.82-.18-.13-.53.03-.89.08-.65,0-1.3.48-1.4,1.06-.05.3.09.58.69.84-1.84.26-1.03,1.34-.59,2.05s1.15,0,1.88-.13ZM211.36,248.73c1.36-.87,2.3-2.26,1.22-3.96l-6,6.96c2.21-.23,3.21-2.01,4.77-3ZM286.35,253.81l-.12-7.49-4.76,5.33c1.62,1.02,2.81,1.71,4.88,2.16ZM213.42,260.08c-.28.24.1,1.34.27,1.32l7.34.51c2.2.15,4.38-.45,5.99-1.91,3.92-3.55,6.68-8.07,8.09-13.21-3.16,1.22-5.51,2.58-8.76,2-.57.65-1.75,2.09-1.27,3.28.22.55,1.61.85,1.42,1.8-.17.83-.52,1.52-1.59,1.79-1.71.43-3.35-.22-3.85-2.24l-7.64,6.65ZM238.57,264.34h3.89c-.05-.85-.49-1.18-.97-1.71.94-5.97-3.9-8.86-4.01-14.67-1.51,4.02-3.24,7.68-6.07,10.94-2.06,2.37-4.18,4.6-7.33,5.13,1.55,1.07,3,.27,4.39.36,2.33.16,4.01-.07,5.91-1.31,1.41-.91,3.38-.48,4.18,1.25ZM105.98,251.35c.56-1.02.28-2.17.15-2.99-1.05.36-1.93,1.09-2.46,1.96-.15.66,1.96,1.68,2.31,1.03ZM96.46,251.28l-2.82-.93c-.38,1.1.1,2.13,1.25,2.62,1.05.45,2.3.58,3.63-.06-.6-.56-1.2-1.35-2.05-1.63ZM104.29,252.62c-.53-.65-1.14-1.36-1.12-2.08l-2.89,1.9c1.02,1.5,3.35,1.56,4.01.17ZM286.23,254.82l-4.83-1.77c-.61.58-1.45,1.85-2.53,1.23-.86-.49-1.18-1.35-1.05-2.75l-4.13,2.05c1.46,2.15,3.74,3.4,6.15,3.45l6.17.14c.29-.85.33-1.38.22-2.36ZM109.35,252.65c-.61.09-1.71.09-2.07.57-.39.56-.27,1.57.12,1.9.34.29.99.55,1.92.57l.03-3.05ZM110.03,252.46v3.89h.94v-3.89h-.94ZM109.25,258.54c-.33-.6-1.66-.92-2.22-.78.16,2.38.24,4.2-.64,6.38-.21.52,1.42.84,2.05.5,1.32-.72,1.06-3.41.81-6.1ZM283.06,264.62c1.22-.02,2.15-.96,3.14-1.36.23-1.28.27-2.74-.33-3.82-3.98.35-7.44.15-10.78-1.49-1.06.72-1.7,2.75-.81,3.49.58.27,2.15-.19,2.49.88.18.56.19,1.33-.12,2.39l6.42-.09ZM110.03,258.63v4.02h.94v-4.02h-.94ZM256.11,263.71c2.76,1.53,5.42.97,5.48-.03.02-.41-.21-.78-.68-1.07l-4.34-2.65c-1.53-.93-4.06-.33-5.81-.28-.59,3.82-5.14.07-8.22,4.6,1.63-.54,2.47-.49,3.85-.17,5.58,1.31,8.68-.98,9.73-.4ZM157.59,265.76l-.08-5.45c-1.65,1.74-2.99-.16-4-.24-.41-.03-3.45,2.52-2.29,5.71l6.37-.02ZM158.11,265.8l8.43-.48-1.32-1.54-.43-3.99-5.02,2.71c-.53.29-1.18.11-1.7-.18-.1,1.25-.18,2.25.04,3.47ZM173.13,261.72c-.54-.97-.98-1.33-1.64-1.71-1.55,1-2.77,2.08-3.41,3.99l5.04-2.28ZM125.48,264.01c-1.28-2.09-4.98-1.57-7.03-.24-.44.29-.13.96.03,1.22.47.79,4.86.87,7.01-.98ZM141.96,265.72l8.45.11.05-2.74c-3.9,2.19-8.4,0-8.51,2.63ZM280.7,280.58c11.53-6.74,22.76-10.63,35.09-13.04l-22.64-.27-2.75,2.96-9.7,10.35ZM162.77,278.08l15.23-10.29-5.45-.03c-3.82,3.85-7.89,7.06-12.07,10.41-1.36,1.1-2.79,1.89-3.69,3.58l5.99-3.67ZM188.4,267.55c-1.8-.73-3.45.84-3.53,2.34l3.53-2.34ZM204.93,267.6l-6.85-.27-16.95,15.18,20.98-13.11c.98-.61,1.54-1.55,2.81-1.8ZM217.94,267.59c-.85-.41-2-.37-2.51.21-.37.42-.99,1.07-1.05,2.13,1.46-.62,2.53-1.36,3.57-2.34ZM237.74,267.84c-1.13-1.3-2.95.72-4.56,2.81,1.93-.47,2.91-1.8,4.56-2.81ZM264.62,267.71c-1.58-.86-2.45.6-3.28,1.38-1.27,1-2.47,1.67-3.28,3.13l6.56-4.51ZM252.69,284.14c8.54-5.85,16.38-11.34,24.86-16.49-1.73-.76-3.01.06-4.74-.04l-14.23,10.97c-2.2,1.7-4.75,3.11-5.89,5.56ZM277.69,277.98l8.21-7.92c.49-.48.98-.99.83-1.51-.1-.36-.5-1.33-1.03-1.13-4.2,1.57-7.71,4.01-11.5,6.36l.04,7.51,3.46-3.31ZM141.67,282.07l15.86-10.7,4-3.24-6.84-.05c-1.24,2.39-3.05,4.18-4.89,6.15-2.66,2.83-6.14,4.78-8.13,7.85ZM110.54,284.99l8.88-9.25c2.18-2.27,4.11-4.66,5.67-7.57l-8.21,4.66-6.57,5.38c0,2.25-.29,4.22.22,6.77ZM123.08,277.51l11.14-7.6c-2.02-.65-3.38-.85-5.07-2.03-.42,1.54-.95,2.5-1.92,3.47l-4.15,6.17ZM147.66,268.6c-1.67-.75-2.75-.35-4.13-.3-.57,2.05-2.12,3.14-3.03,5.22l7.16-4.92Z"/>
    <path class="st0" d="M247.04,154.98c1.1,1.26,2.39,2.67,2.67,4.6.45,3.15.14,6.88-2.36,9.28.74-3.67,2.21-6.62,1.09-9.99-1.76-5.28-8.68-5.91-14.45-5.62-7.68.38-15.03,1.76-22.57,2.92-.67.1-1.49-.12-2.05.09-.62.23-.67,1.11-.73,1.84-.95-.44-.82-1.07-1.12-1.62-14.94,2.14-26.42.87-41.03-1.55-8.56-1.42-19.59-3.35-27.02-.24-3.72,1.56-5.74,4.96-4.85,8.93.46,2.03,1.83,3.64,2.11,6.05-2.53-2.11-3.15-5.49-3.26-8.59-.08-2.42,1.57-4.26,2.9-5.95-2.51-6.78-4.47-12.68.29-18.74.48-.62-.09-2.48,1.25-2.85l-.7,2.47c7.2-4.91,18.69-3.02,27.73-1.57,7.57,1.21,14.86,2.52,22.42,3.3.11-.6.22-.95.4-1.25.28.59.28.81.29,1,.02.36.72.58.94.19.28-.5.3-1.16.87-1.63.69.63,1.26.84,1.94.8-.25.44-.29.95-.12,1.07.18.12.73.24,1.07.25,8.1.16,15.88-1.01,23.89-2.33,8.44-1.39,20.09-3.97,27.23-1.1.35.14.6.33.9.18.18-.09.36-.32.58-.6.58,1.02,1,1.85,2.08,2.39,2.7-8.69,2.71-19-6.48-21.17-8.56-2.03-12.94-.19-20.51,1.22l-14.95,2.8c-.86.16-1.68.32-2.34.7-1.03-.64-2.9-.14-3.04.04-.2.27-.09.72-.4,1.62-.44-.52-.46-.89-.63-1.7l-4.1.32c-11.77.91-23.21-.09-34.54-3.26-8.03-2.25-16.53-4.37-23.16,1.82-3.01,2.81-3.47,6.89-3,10.87.29,2.43,1.95,4.4,1.67,7.07-3.34-4.45-3.79-12.61-.87-16.89-1.61-3.1-1.52-6.47-1.61-9.88-.11-4.54,1.23-8.95,4.72-11.92,1.93-1.64,4.26-2.25,6.46-3.2-.59-.51-1.04-.88-1.13-1.3-.08-.38.26-.96.75-1.26,5.91-3.61,12.25-6.15,19.21-7.25h5.05c.85,0,2.03,1.34,2.45,2.02,2.33,3.83.02,7.48,2.39,7.77-.3.17-.93,1.17-.56,1.54.53.46,1.83.16,2.33-.56-.56-.5-1.11-.42-1.55-.58l.36-.3,2.62.74c4.9-1.7,14.04-5.98,16.82-4.84,1.34.55.77,3.04,2.97,3.2,4.83.37,12.35-2.81,19.37-2.05,1.43,1.12,2.68,1.02,4.7.62l-1.65.84c1.93,1.69,7.16.31,8.85-.84.89-.6,1-.57,2.15-.63l4.26-.24c.79-.05,1.47.37,1.76.94.27.53.21,1.25-.13,2.17,7.53.57,13.71,4.2,14.75,12.13.48,3.68-.11,9.55-2.17,12.36,2.96,5.33,2.04,12.01-.08,17.85,3.75,4.87,2.24,12.3-.72,17.33-.23-.14-.39.02-.39.19ZM158.28,92.12c.99-.38,1.69-.5,2.46-.21-.53.85.11,1.89.78,2.03,1.53-1.37,3.51,1.46,3.33-1.01l5.08.61c-.2-1.42.21-3.96-1.11-5.18-1.78-1.64-4.88-.87-7.06-.34-3.54.85-6.73,1.5-9.72,3.22.8.05,1.31-.01,1.81.4-2.43.08-4.09,1.12-5.37,2.76,1.12.47,1.7-.25,2.48-.61,1.74-.79,4.49.81,5.51-.96.2-.35.1-.87.04-1.41.61-.04,1.25-.05,1.48,0,.19.04.25.21.28.7ZM194.35,99.34c1.29-.1,2.45-.92,3.83-.38.1-.98-.42-1.16-.92-1.53l3.55-.31c.27-.02.56-.33.43-.86-4.01.84-8.06.88-8.96-2.91-1.58-.05-2.94.34-4.33.82l-6.56,2.25,1.18.94c-2.12-.51-3.5-.13-5.31.95l2.68.34c2.05-.42,6.17.44,7.55,2.18l3.09-1.26c1.37-.56,2.42-.13,3.77-.23ZM175.17,99.19c-2.3.08-4.19.26-5.34-2.1-1.15-.34-2.42-.35-3.56-1.02.64-2.34-.43-.77-3.52-.98-.38-.03-1.03.58-1.36.52-.26-.04-.65-.63-.94-.72-1.08-.32-1.96-.41-2.89-1.33-.74.64-1,1.38-.98,2.24l9.6,2.76c6.61,1.9,13.22,2.99,20.24,3-2.38-1.09-5.71-2.13-7.97-1.68-1.24.25-2.32-.72-3.29-.68ZM213.77,96.25c.68-.18,1.42-.71,1.9-1.43-1.7-.55-4.68.51-4.73.71-.05.26.1.64.39.99.74.87,1.07-.94,1.58-.69l.86.42ZM209.42,97.82c.51-1.59-.15-1.93-.84-2.21l.68-.72c-2.31.19-4.32.16-6.52,1.36,1.28-.06,1.98.37,3,.75,1.13.42,2.63.29,3.69.81ZM196.86,117.28c.07.44.06.94.39,1.35.15-.58.15-.94.36-1.27.09-.14.53-.06.61.2l.24.75c.09.27.25.72.44.86.14.11.51.03.72-.43.85.57,2.64.56,2.96-.38-.18-.42-.88-.59-1.05-.63-.22-.05.04-.65.38-.61.23.02.55.5.76.43.2-.06.39-.39.6-.63.04.8,0,1.21.29,1.88,9.8-.96,19.11-4.12,28.7-5.18,3.92-.44,7.49.71,11.41,1.45,1.34.62,2.53,2.39,4.26,3.63,1.17-3.69,1.95-7.38,1.5-11.13-.9-7.55-7.14-11.39-14.49-11.36-.86,1.03-1.49,2.5-2.59,3.22-.68.44-1.48-.29-1.47-.78.02-.68.27-1.22.8-2.18-4.93.56-9.49,2.04-14.56,3.22-14.11,3.29-28.48,4.2-42.75,1.76-3.58-.61-6.8-1.47-10.21-2.42l-10.12-2.82c-3.61-1-7.28-.6-10.7.52-9.44,3.1-10.35,13.43-7.61,22.4,1.36-.74,1.65-1.89,2.31-2.75.66.11,1.35,0,2.04-.36,6.23-3.27,11.66-2.09,18.1-.38s12.22,3.2,18.91,3.8c.13-.62-.07-1.25-.18-2.05.7.33.74.83,1.02,1.31.23-.78.29-1.25.57-1.54.4-.42,2.6-.61,3.06.11-.84.12-1.08.63-1.31.73-.22.1-.73-.59-1.04-.57-.8.06-1.11,1.6-.59,2.24,6.03.32,12.28.36,18.31-.19-.2-.81-.37-1.32-.35-1.87l-.2-.16c-1.24.39-2.63-.67-4.69-.15-.42-1.72-1.88-2.6-3.52-3.33-.75-.34-1.26-1.07-2.31-.67-1.22.46-2.6-.54-3.83-.38-.81.11-1.98,1.6-3.19.57-1.4-1.2-1.79,1.47-3.34,1.52-.83.03-.44-2.15-1.51-1.53-.13.08-.32.39-.22.54.09.13.53.23.94.53-1.23.19-2.29-.25-3.74-.43l1.16-1.05c.84-.76,1.49-2.13,2.87-2.21.79-.05,2-.43,2.7-.32,1.66.24,2.84.24,4.41-.5,4.5-2.11,10.02-5.1,12.18-2.72.69.76.94,1.7.58,2.92l-1.32,4.38c.68.75,1.29-.5,1.63-.88,1.14-1.3,1.98-2.35.98-4.12l1.4-.5c.26.71.47,1.4,1.13,1.88,3.49-1.94,4.2.07,5.99-.84,2.92-1.48,6.64-3.51,8-2.33.68.59.2,2.1.71,2.54.38.32,1.98-.01,2.51.63.35.42.29,1.08-.08,1.41-.32.29-.85.36-1.45.42-1.94.21-3.71-.34-4.03-2.45-1,.12-1.79.3-2.73.92.86.32,1,1.54,1.8,2s2.29-.14,3.17,1.14l-4.93,1.64c.79-1.19.86-1.79.45-2.49-1.57-2.7-7.24.83-11.25,2.98-.6-.2-.9.52-.17.64l.18.16ZM197.25,100.02c-2.06.2-3.57.84-5.48.72-.84-.05-1.9.02-2.31.91,9.68.29,19.08-.87,28.13-3.21-.79-.88-1.36-1.15-2.01-1.52l-5.18,1.51c-.37.11-.75.75-.96.66l-1.08-.46c-1.15.22-2.51.04-3.56.03-.19.46-.54,1.68-.87,1.51l-1.31-.69-5.36.53ZM190.99,113.79c.86-1.6,1.37-3.26,1.66-5.17-2.56.02-7.05,2.14-7.2,2.63-.34,1.12,1.11-.11,1.87-.17.34-.03.64.88.98.92,1.91.23,2.19,2.71,2.69,1.79ZM246.7,154.48c3.37-6.58,4.63-15.93-2.71-18.71-3.46-1.31-7.02-1.73-10.78-1.38-14.83,1.37-28.92,5.79-44.01,4.46-.15,1.33.1,2.26-.29,3.36-.36-1.12-.22-2.26-.71-3.46l-12.59-1.61-13.24-2.13c-7.63-1.23-18.42-2.53-24.17,1.61-4.76,3.42-3.8,10.86-1.51,16.63l1.26-.74c-.35.84-.86,1.29-.77,2.24,3.75-2.12,7.81-2.82,12.15-2.76,13.36.2,27.81,4.84,43.3,4.67l14.79-1.14c-.79-1.93-3.09-1.65-4.49-.55-.46-.32-.19-.74-.2-.93-.01-.28-.6-.51-.77-.86,1.4.14,2.3.06,3.48.2l2.83.35c.18.5.16,1.04.21,1.72l2.94-.43c.56-.08.4-.63.46-.83.1-.3-.07-1.07-.68-.88s-1.03,1.35-2.12.98c.57-1.12,1.96-1.56,3.26-1.42l.08,2.02c8.25-1.03,16.26-2.69,24.55-2.74,3.67-.02,6.95.86,9.84,2.64.16-.1.15-.3-.11-.31Z"/>
    <path class="st0" d="M137.65,190.17c.41.58.03.85-.1,1.15l4.74-.63,15.54.08,17.54,1.02c14.02.81,27.69.48,41.74-.78l2.51-3.33-2.24-.42c1.02-.35,2.02-.03,2.8-.34.59-.24,1.36-1.2,1.05-2.13-.22-.68-1.77-.51-2.38-.31l-7.08,2.39c-.25.08-.68.19-.74.39-.05.16-.05.4-.06.85l-11.14.56c.7-.97-1.57-2.6-1.92-2.66-1.18-.18-2.74,1.89-6.28,1.83l1.2.79-2.95-.08c.38-.63,1.07-.85,1.74-.94,1.16-.16,1.39-.87,2.12-1.51l2.86-2.54c-.79-1.82-4.52-.98-7.59-.14l-7.7,2.11c.34,1.63,1.56,1.4,2.47,1.79,1.46.63,2.49,1.1,4.21,1.12l-8.45-.29c3.06-1.29.08-1.04-4.2-1.88-.22.51-.43.97-.73,1.1-.46.2-1.05.15-1.76.07-.82.31-.87-.69,0-.44.53.21,1.2.1,1.32-.11s-.21-.86-.37-1.15c-2.33-.71-4.44-1.63-6.83-2.54-1.02-.39-2.43-.08-3.27-1.05-.41-.47-1.19-.92-1.79-.64-.4.19-1.04.58-.98,1.36.88-.1,1.85.68,1.45,1.48-.33.66-1.81.39-2.37-.07l-.84,1.32-4.08-.33c.7-.15,1.46-.14,1.65-.46.21-.36.19-1.06.16-1.62.55-.26,1.35.19,1.78.2.8-.47.46-1.45.1-2.11l1.55-.37c.43-.1.44-1.53,1.08-1.69.23-.06.63.08.78.52.23.68,1.46.82,1.62.34.1-.31-.05-.7-.15-.8-.22-.23.31-.95.65-.62,1.41,1.33,3.02,2.18,4.91,1.33.04,1.44.62,2,1.62,2.15l2.9.43c.85.13,1.13,1.09,2.39,1.1,9.58.07,19.01-7.25,22.61-.98.64-.33,1.3-.31,1.67,0,.27.22.19,1.1,1.11,1.36.45-1-.15-1.91-.46-3.07,1.13-.3,1.46.52,2.17.94,1.08-.95,1.95-.65,3.09-.26-.11-.81-.24-1.45,0-1.74.74-.91,2.36.27,3.13.35.33.03.56-1,.91-1.19.98-.53,1.65.97,2.02,1.76.76.25,2.08-.1,2.85.9l3.07-1.58c2.33,2.57,6.13-.96,7.32,1.32.36.69.08,1.74-.31,2.73,1.92.69,3.74.8,5.31,2.28l-4.26.22c.33-.59.8-.51,1.41-.57l-2.2-.8c-.89-.32-1.83.24-1.76,1.34.68.02,1.28-.21,2.15.17-.86.36-1.77.19-2.84.28-.95,1.1-1.91,2.05-2.56,3.59,7.51-.44,22.34-2.18,26.5.38,1.75,1.08,2.79,2.65,2.84,4.05.08,1.9.03,3.98-1.96,5.04.27-2.07,1.43-3.73.73-5.71-1.62-4.63-11.85-3.79-18.21-3.4l-36.57,2.25c-6.98.43-13.55-.36-20.51-.71l-22.44-1.13c-4.26-.21-8.38.14-12.54.72-1.56.22-2.85,1.25-3.43,2.38-1.47,2.84,1.55,5.21.05,6.08-1.66-2.28-2.18-5.81,0-7.8.96-.88,2.17-1.18,2.65-2.71ZM208.09,185.6l6.86-2.43c.33-.29-.58-1.01-1-1.1-.56-.12-1.12.16-1.48,1.01-.72.22-1.62-1.29-1.14-2.27-1.66.33-3,1.65-4.92,1.86-1.06.12-2.64-.65-3.46.63-.27.43-.2,1.37-1.1,1.62-.35.1-.5.8-.34,1.02.18.25,3.78.64,6.57-.35Z"/>
    <path class="st0" d="M187.53,173.07c-.03.27.09.95.42.96l8.17.08c-.02-.7-.24-1.07-.37-1.43.7-.32.94.22.85.42-.06.13.04.86.18.98,8.42-.17,16.9-1.38,25.4-2.3,7.76-.84,17.9-1.8,24.2,1.79.41.24.8.63,1.14.38.27-.2.42-.48.63-.81-.15,1.62.58,2.29,1.18,3.35,1.07,1.91.65,4.36-.34,6.24-.79,1.5-1.33,3.39-3.32,3.7,1.38-2.45,2.89-4.11,3.16-6.58.25-2.3-.66-4.15-2.68-5.32-7.49-4.32-19.41-2.07-28.26-1.25l-20.85,1.92-9.89-.08-.48,2.63-.51-2.73-12.79-1.18c-.02,1.07.22,1.63-.36,2.46l-1.12-2.87-1.24,1.58c-.15-.76-.19-1.22-.44-1.46-.14-.14-23.23-3.76-31.62-.46-2.95,1.16-4.64,3.64-4.07,6.79.48,2.67,2.36,4.58,3.11,7.38-2.59-1.93-3.71-5.11-4.11-8.01-.32-2.33,1.01-4.01,2.33-5.67l1.77-2.23c.54.89,1.11.67,1.92.43,5.15-1.51,10.38-1.45,15.72-.89l14.29,1.49c.52.05.99.09.98-.33,0-.22-.15-.53-.34-.9l1.93-.12.15,1.81c1.22-.27.23-2.33,1.37-2.64.28-.08.87-.08.92.16.08.35.21.94-.18,1.36,0-.33-.53-.93-.88-.73-.25.5-.14,1.24,0,1.81,4.58.6,8.96,1.05,13.48,1.1.14-.5.32-.83.58-.83Z"/>
    <path class="st0" d="M187.53,173.07c.12-1.02-1.11-1.45-1.37-1.23-.4.34-.19,1.01-.31,1.6l-.6-1.97c-3.37,1.98-2.75-1.71-5.6-1.41,0-.65.27-1.57.73-1.8.71-.36,2.73.64,3.36.26.28-.17.23-.94.11-1.29-.13-.38-.89-.34-1.44-.16l-5.67,1.77c-.22.07-.79-.75-1-.83-.26-.11-.64.46-1.08.42-.42-.13-1.05-.68-1.47-.61-.34.06-.58,1.15-.92,1.14-.72-.03-.78-.79-.44-1.29.23-.35.63-.65,1.24-.98.5-.27.16-.89,0-1.14-.76-1.17-8.5,1.04-8.38,2.84.07,1.11,2.7.5,3.88,3.01.5-.42,1.4-.56,1.58-.23-.38.2-1.35.89-1.82.51l-2.39-1.92c-.38-.31-1.13-.22-1.37-.43-.46-.42.96-2.06-5.41-2.05.75-.53,1.81-.2,2.75-.24l.91-5.24,1.3.71c.47.26,1.79-1.8,2.83-.53.38.46,1,.73,1.47.73.38,0,.69-1.15,1.07-1.18,1.59-.15,3.48.82,5.07,1.02,2.03.26,3.31,1.47,3.17,3.62l4.3-1.42c2.31-.76,3.98.35,5.39,2,1.23.79,3.39-.15,4.71-.62,5.37-1.88,12.12-4.85,16.79-3.21l.61,2.73c.86-.6.85-1.23,1.2-1.99,1.4.3,2.65.41,3.7,1.26l.36,1.04c.12.34.85.48,1.5.24,1.17,1.29,2.68,1.39,4.38.93,1,1.08,2.15,1.04,3.54,1.23l-6.69.75-1.05-1.57c-1.27-.09-2.34-.43-3.2-1.34-2.2,1.71-4.84,3.48-6.4,2.53-.94-.57-.07-2.43-1.5-3.25-1.12-.65-2.92,1.41-2.79,1.67s.78.54.9,1.31l-4.78.52c-1,.65-1.74.89-2.95.68-.49-.09-1.42.86-2.07-.22-1.45.67-3.03.73-4.49.02-1.07.82-2.24.87-3.26-.14-1,.33-2.06.51-3.01.49-.57,2.54,3.04-.41,5.02,1.91.55.64.82.73,1.77.55-.56,1.24-1.56.97-2.17.82ZM200.99,167.28c.46-.42-.09-1.56-.67-1.5-.49.05-1.76.01-1.64.8.09.55,1.72,1.25,2.31.7ZM197.04,168.35c.1-.23.08-1.15-.14-1.26-1-.08-2.02.44-2.99.82.1.44.48.82.88.67,1.55-.55,2.05.19,2.24-.23Z"/>
    <path class="st0" d="M273.44,211.51l.2-13.14.18-8.34c0-.14.22-.26.34-.22l.05,21.5c-.22.24-.5.25-.78.19Z"/>
    <rect class="st0" x="107.87" y="198.21" width="1.14" height="6.89"/>
    <rect class="st0" x="127.27" y="221.74" width=".39" height="7.68"/>
    <path class="st0" d="M209.46,148.14c-1.69.87-4.13-.41-6.53.39-1.53.52-3.05.23-4.57-.05-.17.56-.51,1.18-.81,1.14l-1.21-.18-2.37,1.89-1.03.3c-.25.07-.22.69.01,1.17l-3.58-.15,2.47-1.46.47-.89c.14-.27.93-.03,1.23-.08,1.11-.79,1.27-2.64,1.14-4.1-.05-.56.92-.65,1.19-.32.18.22.47.8.83,1.05.88-.31,1.96-.57,2.83.62.67-.74.15-1.73.25-2.34.31-.43.97-.24,1.1.03.17.35.26.73.51,1.52.55-.39.66-.89.92-1.37.94.5,1.05,1.09,1.42,2.04l1.22-1.33c.63,1.2,1.8,1.69,2.89,1.09,1.95-1.07,4.17.32,4.1.75-.06.4-.22.74-.45,1.47,2.03-.24,3.79.27,5.31,1.32-1.13.55-1.96.3-3.01.5.15-1.52-2.12.21-4.48-1.56l.14-1.44Z"/>
    <path class="st0" d="M189.21,145.68c-1.34.66-2.71,1.25-3.87,1.66-.09.52-.08,1.56-.48,1.79-.77.45-3.52-.47-3.65-1.68-.07-.71.35-1.55,1.25-1.79l4.36-1.16c4.42-2.37,8.18-1.34,7.58-.16-.15.29-.47.66-.95.73l-4.24.61Z"/>
    <path class="st0" d="M174.79,149.46c-3.14-.22-3.38-2.91-5-2.32-.18,1.05-.68,1.95-1.32,2.32-.92.53-1.93.3-2.75-.01,1.69-.03.82-1.94,3.04-2.05-.08-1.47.74-1.92,1.67-2.11,1.43-.3,1.33.96,1.94,1.84.89,1.31,3.04,1.13,4.53,1.39-.25,1.12-.19,1.8.53,3.01-1.66-.27-2.72-.8-4.61-.72,1.11-.87,2.57.36,1.98-1.34Z"/>
    <path class="st0" d="M191.58,131.56l-.76.68c-.44.4-.83-1.2-2.46-1.75-.63-.21-1.15.31-1.58,1.1-1.78-.7-3.8-.55-4.96,1.01-.21.29.36,1,.14,1.17-.98.74-3.44-.56-5.98-.81.98-.37,1.1-1.26,1.42-1.77,1.2-.14,1.97-1.12,2-2.31.37-.35,1.3.02,1.56.55,4.01-.98,7.19-4.15,9.49-1.47.64-.69,1.38-.9,2.27-.46l1.39-1.1,1.12,1.52c1.1-.51,2.98-2.13,4.42-1.24,1.33,1.07,3,3.09,4.68,3.86.3.14.09,1.27.29,1.51.92,1.17,4.34-.05,5.99,1.77-3.6-.01-5.92,1.96-6.09,1.05-.12-.66.95-.57.76-1.16-.26-.8-1.55.35-2.26-.08-.54-.32-.91-.82-1.09-1.73-1.01-.16-2.53-.39-3.55-.31-.8.89-1.2,1.18-2.12.94-1.06-.28-1.43-.78-1.4-1.85l-3.25.88Z"/>
    <rect class="st0" x="148.93" y="128.78" width="8.08" height=".39"/>
    <rect class="st0" x="146.96" y="110.66" width="8.08" height=".39"/>
    <rect class="st0" x="186.36" y="97.66" width="9.65" height=".39"/>
  </g>
</svg>