<?xml version="1.0" encoding="UTF-8"?>
<svg id="Layer_1" xmlns="http://www.w3.org/2000/svg" version="1.1" viewBox="0 0 1190.55 409.32">
  <!-- Generator: Adobe Illustrator 30.1.0, SVG Export Plug-In . SVG Version: 2.1.1 Build 136)  -->
  <defs>
    <style>
      .st0 {
        fill: #faf7f1;
      }

      .st1 {
        fill: #faf7f1;
      }
    </style>
  </defs>
  <path class="st1" d="M93.05,279.99H25.86c24.43,0,34.61-34.61,41.74-52.94,1.02-2.54,2.04-5.09,3.05-7.63,7.63,19.85,14.76,40.21,22.4,60.57M213.17,189.9c1.02-2.54,2.04-5.09,3.05-7.63,7.13-18.32,17.31-52.94,41.74-52.94h-66.68c7.13,20.36,14.76,40.21,21.89,60.57M129.18,153.25c-7.63-20.36-14.25-38.68-18.32-49.88-2.54-6.62-2.54-14.25,0-20.87l25.96-66.68c28.5,69.73,52.43,141.5,79.4,211.74,7.13,18.32,17.31,52.94,41.74,52.94h-82.46l-21.38-58.02c-7.13-20.36-16.29-45.81-24.94-69.22h0ZM214.69,259.63h-34.61v1.53c0,1.02,0,2.04-.51,3.56v.51h37.67c-1.02-2.04-1.53-4.07-2.54-5.6M210.11,249.45h-31.56c0,1.02.51,1.53.51,2.54v.51c0,1.02.51,1.53.51,2.54h32.58c-.51-2.04-1.53-4.07-2.04-5.6M206.04,239.27h-31.05c.51,2.04,1.53,3.56,2.04,5.09h31.05c-.51-1.53-1.53-3.56-2.04-5.09M202.48,229.09h-30.54c.51,2.04,1.53,3.56,2.04,5.09h30.54c-.51-1.02-.51-1.53-1.02-2.54-.51-.51-1.02-1.53-1.02-2.54M198.41,218.91h-30.54c.51,2.04,1.53,3.56,2.04,5.09h30.54c-.51-1.53-1.53-3.56-2.04-5.09M194.33,208.73h-30.54c.51,2.04,1.53,3.56,2.04,5.09h30.54c-.51-1.53-1.02-3.56-2.04-5.09M190.77,198.55h-30.03c.51,2.04,1.53,3.56,2.04,5.09h30.54c-1.02-1.53-2.04-3.56-2.54-5.09M187.21,188.37h-30.03c.51,1.53,1.53,3.56,2.04,5.09h30.03c-1.02-1.53-1.53-3.56-2.04-5.09M183.14,178.19h-30.03c.51,1.53,1.53,3.56,2.04,5.09h30.03c-.51-1.53-1.02-3.56-2.04-5.09M179.57,168.01h-30.03c.51,1.53,1.53,3.56,2.04,5.09h30.03c-.51-1.53-1.53-3.56-2.04-5.09M176.01,157.83h-30.54c.51,1.53,1.53,3.56,2.04,5.09h30.03c-.51-1.53-1.02-3.56-1.53-5.09M172.45,147.65h-30.54c.51,1.53,1.53,3.56,2.04,5.09h30.54c-.51-1.02-.51-1.53-1.02-2.54-.51-1.02-1.02-1.53-1.02-2.54M168.38,137.47h-30.54c.51,1.53,1.53,3.56,2.04,5.09h30.54c-.51-2.04-1.02-3.56-2.04-5.09M164.81,127.3h-30.54c.51,1.53,1.53,3.56,2.04,5.09h30.54c-1.02-2.04-1.53-3.56-2.04-5.09M161.25,117.12h-30.54c.51,1.53,1.53,3.56,2.04,5.09h30.54c-1.02-2.04-1.53-3.56-2.04-5.09M134.27,61.13h6.11c-1.02-2.54-2.04-5.09-3.05-7.63l-3.05,7.63ZM130.2,71.31h13.74c-.51-1.53-1.53-3.56-2.04-5.09h-9.67l-2.04,5.09ZM126.13,81.49h21.89c-.51-1.53-1.53-3.56-2.04-5.09h-17.81l-2.04,5.09ZM122.06,91.67h29.52c-.51-1.53-1.53-3.56-2.04-5.09h-25.45l-2.04,5.09ZM125.11,101.85h30.54c-.51-1.53-1.53-3.56-2.04-5.09h-30.54c.51,1.02.51,2.04,1.02,3.05.51.51.51,1.02,1.02,2.04M126.64,106.43c.51,1.53,1.53,3.56,2.04,5.09h30.54c-.51-1.53-1.53-3.56-2.04-5.09h-30.54ZM121.04,161.4c10.69,30.54,54.97,151.17,56.5,154.73l-30.03,77.37c-29.01-69.22-52.94-140.99-79.4-211.23-7.63-18.83-17.81-52.94-42.25-52.94h71.77c6.62,0,12.72,4.07,14.76,10.69l8.65,21.38ZM68.11,146.64h36.14v-1.53c0-.51,0-1.02.51-1.53h-38.68c1.02.51,1.53,2.04,2.04,3.05M72.69,156.82h32.07l-.51-1.53h0c0-1.53-.51-2.54-.51-3.56h-33.08c.51,1.53,1.53,3.56,2.04,5.09M77.27,167h30.54c-.51-2.04-1.53-4.07-2.04-5.09h-31.05c1.02,1.53,1.53,3.56,2.54,5.09M80.83,177.18h30.54c-.51-2.04-1.53-3.56-2.04-5.09h-31.05c1.53,1.53,2.04,3.56,2.54,5.09M84.9,187.36h30.54c-.51-2.04-1.53-3.56-2.04-5.09h-30.54c.51,1.53,1.02,3.56,2.04,5.09M88.46,197.54h30.54c-.51-2.04-1.53-3.56-2.04-5.09h-30.54c1.02,1.53,1.53,3.56,2.04,5.09M92.54,207.72h30.54c-.51-2.04-1.53-3.56-2.04-5.09h-30.54c.51,1.53,1.02,3.56,2.04,5.09M151.07,345.14h-8.14c1.53,3.56,2.54,7.13,4.07,10.69l4.07-10.69ZM155.14,334.96h-16.29c.51,1.53,1.53,3.56,2.04,5.09h12.22l2.04-5.09ZM159.21,324.78h-23.92c.51,1.53,1.53,3.56,2.04,5.09h19.85l2.04-5.09ZM161.76,314.6h-30.54c.51,1.53,1.53,3.56,2.04,5.09h27.49l1.53-3.56c0-.51,0-1.02-.51-1.53M158.2,304.42h-30.54c.51,1.53,1.53,3.56,2.04,5.09h30.54c-1.02-1.53-1.53-3.56-2.04-5.09M154.12,294.24h-30.54c.51,1.53,1.53,3.56,2.04,5.09h30.54c-.51-1.53-1.02-3.56-2.04-5.09M150.56,284.06h-30.54c.51,1.53,1.53,3.56,2.04,5.09h30.54c-.51-1.53-1.53-3.56-2.04-5.09M147,273.88h-30.54c.51,1.53,1.53,3.56,2.04,5.09h30.54c-1.02-1.53-1.53-3.56-2.04-5.09M142.93,263.7h-30.54c.51,1.53,1.53,3.56,2.04,5.09h30.54c-.51-1.53-1.02-3.56-2.04-5.09M139.36,253.52h-30.54c.51,1.53,1.53,3.56,2.04,5.09h30.54c-.51-1.53-1.53-3.56-2.04-5.09M135.8,243.34h-30.03c.51,1.53,1.53,3.56,2.04,5.09h30.54c-1.53-1.53-2.04-3.56-2.54-5.09M131.73,233.17h-30.03c.51,1.53,1.53,3.56,2.04,5.09h30.03c-.51-1.53-1.02-3.56-2.04-5.09M128.17,222.99h-30.03c.51,1.53,1.53,3.56,2.04,5.09h30.03c-.51-1.53-1.53-3.56-2.04-5.09M124.6,212.81h-30.03c.51,1.53,1.53,3.56,2.04,5.09h30.03c-1.02-1.53-1.53-3.56-2.04-5.09"/>
  <g>
    <g>
      <path class="st0" d="M487,169.03c-1.53.51-3.05,1.02-4.58,2.54-4.07,3.05-7.63,8.14-11.71,15.27l-40.21,72.79h-14.25l-40.21-73.8c-5.6-10.18-11.2-15.78-16.29-16.8h39.7c-4.07.51-6.11,2.54-6.11,6.11,0,2.04,1.02,5.09,3.05,8.65l31.05,57.01,31.05-57.01c1.53-3.05,2.04-5.09,2.04-7.13,0-4.07-2.04-6.62-6.62-7.63h33.08Z"/>
      <path class="st0" d="M593.89,259.63h-39.7c4.07-.51,6.11-2.54,6.11-6.11,0-2.04-1.02-5.09-3.05-8.65l-4.58-8.65h-53.44l-4.58,8.65c-2.04,3.56-3.05,6.11-3.05,7.63,0,4.07,2.54,6.11,7.63,7.13h-33.08c1.53-.51,3.05-1.02,4.58-2.54,4.07-3.05,7.63-8.14,11.71-15.27l40.21-72.79h14.25l40.72,73.29c5.6,10.18,10.69,16.29,16.29,17.31M547.07,226.04l-21.38-39.7-21.38,39.7h42.76Z"/>
    </g>
    <g>
      <path class="st1" d="M638.88,259.09v-37.13h15.15c7.11,0,11.73,4.26,11.73,10.72s-4.62,10.61-11.73,10.61h-11.86v15.8h-3.28ZM642.16,240.33h11.7c5.6,0,8.53-3.03,8.53-7.65s-2.92-7.76-8.53-7.76h-11.7v15.42Z"/>
      <path class="st1" d="M696.16,259.09v-37.13h15.66c7.11,0,11.73,4.05,11.73,10.53,0,5.36-3.31,9.16-8.64,10.22l9.54,16.38h-3.86l-9.16-16.1h-12v16.1h-3.28ZM699.44,239.97h12.22c5.61,0,8.53-3,8.53-7.49s-2.92-7.52-8.53-7.52h-12.22v15.01Z"/>
      <path class="st1" d="M752.2,240.71c0-11.21,8.09-19.3,18.86-19.3s19.09,8.09,19.09,19.3-8.12,18.92-19.09,18.92-18.86-7.79-18.86-18.92ZM771.06,256.63c9.14,0,15.78-6.56,15.78-15.91s-6.62-16.29-15.78-16.29-15.58,6.83-15.58,16.29,6.61,15.91,15.58,15.91Z"/>
      <path class="st1" d="M821.44,259.09v-37.13h15.15c7.11,0,11.73,4.26,11.73,10.72s-4.62,10.61-11.73,10.61h-11.87v15.8h-3.28ZM824.72,240.33h11.7c5.61,0,8.53-3.03,8.53-7.65s-2.92-7.76-8.53-7.76h-11.7v15.42Z"/>
      <path class="st1" d="M878.71,221.96h24.23v2.95h-20.95v13.45h18.07v2.98h-18.07v14.79h21.54v2.95h-24.82v-37.13Z"/>
      <path class="st1" d="M934.81,259.09v-37.13h15.66c7.11,0,11.73,4.05,11.73,10.53,0,5.36-3.31,9.16-8.64,10.22l9.54,16.38h-3.86l-9.16-16.1h-12v16.1h-3.28ZM938.09,239.97h12.22c5.61,0,8.53-3,8.53-7.49s-2.92-7.52-8.53-7.52h-12.22v15.01Z"/>
      <path class="st1" d="M988.88,221.96h28.49v3.01h-12.61v34.12h-3.28v-34.12h-12.61v-3.01Z"/>
      <path class="st1" d="M1047.04,221.96h3.28v37.13h-3.28v-37.13Z"/>
      <path class="st1" d="M1084.02,221.96h24.22v2.95h-20.94v13.45h18.07v2.98h-18.07v14.79h21.54v2.95h-24.82v-37.13Z"/>
      <path class="st1" d="M1140.25,250.14c2.73,4.26,7.11,6.48,11.86,6.48s9.27-2.49,9.27-6.64-3.22-5.88-10.36-8.29c-7.95-2.68-12-5.3-12-10.55,0-6.42,6.26-9.73,12.03-9.73,6.34,0,10.58,3.14,12.66,6.48l-2.54,1.86c-2.21-3.53-5.8-5.31-10.11-5.31s-8.72,2.33-8.72,6.65c0,3.44,3.09,5.44,9.68,7.57,9.51,3.09,12.68,5.96,12.68,11.26,0,6.29-6.01,9.71-12.58,9.71-6.04,0-11.67-2.9-14.3-7.63l2.43-1.86Z"/>
    </g>
  </g>
</svg>