<?xml version="1.0" encoding="UTF-8"?>
<svg xmlns="http://www.w3.org/2000/svg" viewBox="78 274 686 46" fill="#fff">
  <path d="M99.05,278.27c4.97,0,8.79,1.07,12.67,3.25l-.77,1.45c-2.72-1.48-6.87-3.14-11.58-3.14-2.96,0-6.78.86-7.99,3.97-.89,2.28.27,5.15,4.35,6.72l9.8,3.76c8.53,3.2,11.01,9.48,9,14.51-1.66,4.5-6.9,8.2-14.75,8.2-5.77,0-11.64-2.55-14.71-6.6l1.3-1.1c3.17,3.76,7.96,5.92,13.41,5.92,4.97,0,8.05-2.25,9.06-5.09,1.21-3.38-.56-7.52-5.8-9.53l-10.13-3.88c-6.19-2.37-8.47-6.93-7.58-10.81,1.01-4.14,5.8-7.64,13.71-7.64Z"/>
  <path d="M130.83,278.27h25.79v1.78h-18.98v14.33h16.49v1.84h-16.49v18.95h18.98v1.84h-25.79v-38.73Z"/>
  <path d="M171.95,278.27h18.59c5.54,0,10.13,4.53,10.13,10.13s-4.92,10.13-10.51,10.13c2.43,1.16,4.14,3.05,5.6,6.37l5.18,12.11h-7.52l-5.8-13.44c-1.33-3.14-2.66-5.03-5.74-5.03h-3.05v18.48h-6.87v-38.73ZM178.82,280.05v16.7h6.69c4.59,0,8.29-3.76,8.29-8.35s-3.7-8.35-8.29-8.35h-6.69Z"/>
  <path d="M216.93,278.27h18.59c5.54,0,10.13,4.53,10.13,10.13s-4.92,10.13-10.51,10.13c2.43,1.16,4.14,3.05,5.6,6.37l5.18,12.11h-7.52l-5.8-13.44c-1.33-3.14-2.66-5.03-5.74-5.03h-3.05v18.48h-6.87v-38.73ZM223.8,280.05v16.7h6.69c4.59,0,8.29-3.76,8.29-8.35s-3.7-8.35-8.29-8.35h-6.69Z"/>
  <path d="M272.45,289.08l-11.66,27.92h-2.01l16.34-38.73,16.82,38.73h-7.49l-11.99-27.92Z"/>
  <path d="M313.33,278.27v36.89h18.95v1.84h-25.76v-38.73h6.81Z"/>
  <path d="M343.75,278.27l11.99,27.95,11.7-27.95h1.98l-16.31,38.73-16.82-38.73h7.46Z"/>
  <path d="M383.88,278.27h25.79v1.78h-18.98v14.33h16.49v1.84h-16.49v18.95h18.98v1.84h-25.79v-38.73Z"/>
  <path d="M436.65,278.27c4.97,0,8.79,1.07,12.67,3.25l-.77,1.45c-2.72-1.48-6.87-3.14-11.58-3.14-2.96,0-6.78.86-7.99,3.97-.89,2.28.27,5.15,4.35,6.72l9.8,3.76c8.53,3.2,11.01,9.48,9,14.51-1.66,4.5-6.9,8.2-14.75,8.2-5.77,0-11.64-2.55-14.71-6.6l1.3-1.1c3.17,3.76,7.96,5.92,13.41,5.92,4.97,0,8.05-2.25,9.06-5.09,1.21-3.38-.56-7.52-5.8-9.53l-10.13-3.88c-6.19-2.37-8.47-6.93-7.58-10.81,1.01-4.14,5.8-7.64,13.71-7.64Z"/>
  <path d="M515.36,278.27c6.6,0,11.64,2.61,15.72,7.58l-5.66,4.83c-3.58-4.11-10.07-8.08-15.69-8.08-2.55,0-4.89.77-6.75,2.66-4.91,4.86-3.32,14.42,3.52,21.23,3.55,3.55,8.38,5.66,12.91,5.66,1.98,0,3.91-.44,5.68-1.27v-13.23h6.81v19.36h-6.81v-2.81c-2.75,1.78-6.13,2.81-9.74,2.81-10.66,0-19.36-8.68-19.36-19.36s8.7-19.36,19.36-19.36Z"/>
  <path d="M559.2,289.08l-11.66,27.92h-2.01l16.34-38.73,16.82,38.73h-7.49l-11.99-27.92Z"/>
  <path d="M593.27,278.27h18.59c5.54,0,10.13,4.53,10.13,10.13s-4.92,10.13-10.51,10.13c2.43,1.16,4.14,3.05,5.6,6.37l5.18,12.11h-7.52l-5.8-13.44c-1.33-3.14-2.66-5.03-5.74-5.03h-3.05v18.48h-6.87v-38.73ZM600.14,280.05v16.7h6.69c4.59,0,8.29-3.76,8.29-8.35s-3.7-8.35-8.29-8.35h-6.69Z"/>
  <path d="M638.26,278.27h13.71c10.69,0,18.48,7.96,18.48,19.36s-7.79,19.36-18.48,19.36h-13.71v-38.73ZM645.04,280.05v35.12h4.26c9.68,0,14.33-8.67,14.33-17.53s-4.71-17.59-14.33-17.59h-4.26Z"/>
  <path d="M686.51,278.27h25.79v1.78h-18.98v14.33h16.49v1.84h-16.49v18.95h18.98v1.84h-25.79v-38.73Z"/>
  <path d="M729.46,289.29v27.71h-1.84v-38.73l27.39,27.66v-27.66h1.81v38.73l-27.36-27.71Z"/>
</svg>
